<svg width="32" height="32" viewBox="0 0 32 32" fill="none" xmlns="http://www.w3.org/2000/svg">
  <!-- Beaverly Logo - Modern Geometric Design -->
  <defs>
    <linearGradient id="logoGradient" x1="0%" y1="0%" x2="100%" y2="100%">
      <stop offset="0%" style="stop-color:#2563eb;stop-opacity:1" />
      <stop offset="50%" style="stop-color:#3b82f6;stop-opacity:1" />
      <stop offset="100%" style="stop-color:#7c3aed;stop-opacity:1" />
    </linearGradient>
    <filter id="glow">
      <feGaussianBlur stdDeviation="2" result="coloredBlur"/>
      <feMerge> 
        <feMergeNode in="coloredBlur"/>
        <feMergeNode in="SourceGraphic"/>
      </feMerge>
    </filter>
  </defs>
  
  <!-- Main Logo Shape - Stylized "B" with modern aesthetics -->
  <g filter="url(#glow)">
    <!-- Top section of B -->
    <path d="M5 3C5 2.44772 5.44772 2 6 2H18C21.866 2 25 5.13401 25 9C25 11.7614 22.7614 14 20 14H12" 
          stroke="url(#logoGradient)" 
          stroke-width="2.5" 
          stroke-linecap="round" 
          fill="none"/>
    
    <!-- Bottom section of B -->
    <path d="M5 14H21C24.866 14 28 17.134 28 21C28 24.866 24.866 28 21 28H6C5.44772 28 5 27.5523 5 27V3Z" 
          stroke="url(#logoGradient)" 
          stroke-width="2.5" 
          stroke-linecap="round" 
          fill="none"/>
    
    <!-- Tech accent elements -->
    <circle cx="23" cy="21" r="1.5" fill="url(#logoGradient)" opacity="0.8"/>
    <circle cx="20" cy="9" r="1" fill="url(#logoGradient)" opacity="0.6"/>
    
    <!-- Modern geometric accents -->
    <rect x="9" y="18" width="1.5" height="1.5" fill="url(#logoGradient)" opacity="0.7" rx="0.3"/>
    <rect x="12" y="21" width="1.5" height="1.5" fill="url(#logoGradient)" opacity="0.5" rx="0.3"/>
    <rect x="15" y="7" width="1" height="1" fill="url(#logoGradient)" opacity="0.4" rx="0.2"/>
  </g>
</svg>
